<svg xmlns="http://www.w3.org/2000/svg" viewBox="0 0 512 512">
  <defs>
    <linearGradient id="bg" x1="0" y1="0" x2="1" y2="1">
      <stop offset="0%" stop-color="#818CF8"/>
      <stop offset="100%" stop-color="#4F46E5"/>
    </linearGradient>
  </defs>
  <!-- Background -->
  <rect width="512" height="512" rx="96" fill="url(#bg)"/>
  <!-- Barcode lines -->
  <g fill="#ffffff" opacity="0.92" transform="translate(256,230)">
    <rect x="-136" y="-65" width="7" height="130" rx="2"/>
    <rect x="-118" y="-65" width="14" height="130" rx="2"/>
    <rect x="-94" y="-65" width="7" height="130" rx="2"/>
    <rect x="-78" y="-65" width="20" height="130" rx="2"/>
    <rect x="-48" y="-65" width="7" height="130" rx="2"/>
    <rect x="-32" y="-65" width="14" height="130" rx="2"/>
    <rect x="-8" y="-65" width="7" height="130" rx="2"/>
    <rect x="8" y="-65" width="20" height="130" rx="2"/>
    <rect x="38" y="-65" width="7" height="130" rx="2"/>
    <rect x="54" y="-65" width="14" height="130" rx="2"/>
    <rect x="78" y="-65" width="7" height="130" rx="2"/>
    <rect x="94" y="-65" width="20" height="130" rx="2"/>
    <rect x="124" y="-65" width="7" height="130" rx="2"/>
  </g>
  <!-- Scan line -->
  <rect x="105" y="226" width="302" height="5" rx="2.5" fill="#22C55E" opacity="0.85"/>
  <!-- Corner brackets -->
  <g stroke="#ffffff" stroke-width="5" fill="none" stroke-linecap="round" stroke-linejoin="round" opacity="0.55" transform="translate(256,230)">
    <polyline points="-148,-90 -165,-90 -165,-73"/>
    <polyline points="148,-90 165,-90 165,-73"/>
    <polyline points="-148,90 -165,90 -165,73"/>
    <polyline points="148,90 165,90 165,73"/>
  </g>
  <!-- Text -->
  <text x="256" y="410" text-anchor="middle" font-family="system-ui,-apple-system,sans-serif" font-weight="800" font-size="44" fill="#ffffff" letter-spacing="5">KUBERAN</text>
  <text x="256" y="452" text-anchor="middle" font-family="system-ui,-apple-system,sans-serif" font-weight="400" font-size="22" fill="#ffffff" opacity="0.65" letter-spacing="8">SCANNER</text>
</svg>
